<?xml version="1.0" standalone="no"?>
<!DOCTYPE svg PUBLIC "-//W3C//DTD SVG 20010904//EN"
 "http://www.w3.org/TR/2001/REC-SVG-20010904/DTD/svg10.dtd">
<svg version="1.0" xmlns="http://www.w3.org/2000/svg"
 width="200.000000pt" height="200.000000pt" viewBox="0 0 200.000000 200.000000"
 preserveAspectRatio="xMidYMid meet">

<g transform="translate(0.000000,200.000000) scale(0.100000,-0.100000)"
fill="#000000" stroke="none">
<path d="M1125 1950 l7 -30 -99 0 c-403 0 -727 -194 -904 -540 -43 -83 -44
-84 -47 -50 l-4 35 -15 -35 c-8 -19 -24 -73 -35 -120 -25 -100 -29 -288 -9
-385 82 -392 353 -681 739 -787 116 -32 373 -32 492 1 168 45 314 127 442 249
500 477 368 1305 -255 1607 -96 46 -226 85 -285 85 -32 0 -33 -1 -27 -30z
m-110 -260 c0 -30 -4 -89 -8 -131 l-8 -77 75 -4 c123 -6 165 -53 175 -197 l6
-86 13 134 c7 74 15 138 18 143 3 4 69 8 147 8 158 0 181 -7 230 -72 99 -131
72 -494 -48 -653 -44 -56 -85 -76 -174 -82 l-78 -6 -14 -126 -14 -126 -75 0
-75 0 0 55 c0 30 4 89 8 130 l7 75 -75 -3 c-60 -3 -76 -1 -81 12 -3 8 6 130
21 272 14 141 24 263 21 270 -4 10 -23 14 -59 14 l-53 0 -28 -271 c-15 -149
-30 -278 -33 -286 -4 -10 -22 -13 -77 -11 l-71 3 2 79 2 79 -21 -34 c-53 -89
-104 -121 -208 -128 l-75 -6 -12 -117 c-6 -64 -14 -121 -18 -127 -8 -14 -142
-14 -150 -1 -5 9 89 985 100 1038 5 22 8 22 146 22 101 0 147 -4 167 -14 45
-23 84 -72 103 -128 10 -29 18 -45 19 -34 1 69 44 423 53 434 7 9 31 12 76 10
l66 -3 0 -55z"/>
<path d="M885 1698 c-2 -7 -24 -220 -49 -473 -26 -253 -48 -472 -51 -487 -4
-28 -4 -28 54 -28 l58 0 16 158 c9 86 22 214 29 285 l12 127 62 0 c106 0 107
-7 74 -320 -11 -102 -20 -200 -20 -217 l0 -33 55 0 c30 0 55 2 55 4 0 2 12
113 26 247 44 421 26 479 -150 479 -41 0 -77 3 -79 8 -4 6 3 93 18 215 l6 47
-56 0 c-36 0 -57 -4 -60 -12z"/>
<path d="M406 1418 c-7 -30 -96 -915 -96 -951 0 -26 2 -27 49 -27 28 0 52 4
55 9 3 5 11 55 17 112 16 163 8 149 91 149 97 0 148 25 193 94 45 68 73 155
85 268 18 156 -9 277 -75 338 -25 24 -33 25 -170 28 -144 3 -144 3 -149 -20z
m246 -156 c38 -38 44 -127 16 -257 -21 -101 -59 -135 -151 -135 l-53 0 18 188
c25 258 17 236 90 229 41 -4 67 -12 80 -25z"/>
<path d="M526 1238 c-3 -7 -9 -69 -16 -138 -6 -69 -13 -140 -17 -157 l-5 -33
45 0 c64 0 95 28 113 105 21 92 19 190 -6 215 -23 23 -108 29 -114 8z"/>
<path d="M1300 1423 c0 -10 -23 -232 -49 -493 -27 -261 -46 -479 -42 -483 5
-5 30 -7 57 -5 l49 3 14 133 14 132 66 0 c94 0 133 14 176 61 77 86 120 241
113 412 -3 84 -8 112 -30 159 -41 89 -63 98 -230 98 -125 0 -138 -2 -138 -17z
m225 -148 c49 -20 58 -51 52 -165 -7 -113 -28 -181 -69 -215 -24 -21 -40 -25
-90 -25 l-60 0 6 48 c3 26 13 116 22 201 8 85 17 158 20 163 8 13 82 9 119 -7z"/>
<path d="M1420 1233 c0 -10 -7 -76 -15 -148 -21 -187 -23 -175 28 -175 23 0
52 7 64 15 29 20 52 94 60 191 6 79 5 83 -20 108 -20 20 -36 26 -72 26 -36 0
-45 -3 -45 -17z"/>
<path d="M1241 1114 c0 -11 3 -14 6 -6 3 7 2 16 -1 19 -3 4 -6 -2 -5 -13z"/>
<path d="M1231 1014 c0 -11 3 -14 6 -6 3 7 2 16 -1 19 -3 4 -6 -2 -5 -13z"/>
<path d="M1221 914 c0 -11 3 -14 6 -6 3 7 2 16 -1 19 -3 4 -6 -2 -5 -13z"/>
</g>
</svg>
