<?xml version="1.0" encoding="UTF-8"?>
<svg version="1.1" xmlns="http://www.w3.org/2000/svg" width="178" height="276">
<path d="M0 0 C58.41 0 116.82 0 177 0 C177 41.19830137 176.45453125 80.62988055 172.42266846 121.37939453 C171.80604736 127.68500098 171.22662743 133.99404329 170.64257812 140.30273438 C169.79021608 149.45367511 168.92595457 158.60331536 168.03149414 167.75024414 C167.89662598 169.13887413 167.89662598 169.13887413 167.7590332 170.55555725 C167.51442325 173.03798171 167.25823785 175.51896286 167 178 C166.89100451 179.16226215 166.89100451 179.16226215 166.77980709 180.34800434 C166.21297634 185.79609943 166.21297634 185.79609943 164.12084961 187.79907227 C159.51071766 189.57308768 154.83108727 190.92032701 150.06640625 192.21484375 C148.99688217 192.51185684 147.92735809 192.80886993 146.82542419 193.11488342 C143.40634236 194.06276478 139.98454001 195.00036081 136.5625 195.9375 C133.18087043 196.87135428 129.79981633 197.80727123 126.41879272 198.74331665 C124.238434 199.34577062 122.05746974 199.94603767 119.87588501 200.54403687 C115.41389022 201.7681646 110.95680807 202.99649394 106.52685547 204.33251953 C104.70178467 204.88141846 104.70178467 204.88141846 102.83984375 205.44140625 C101.35859009 205.90268921 101.35859009 205.90268921 99.84741211 206.37329102 C93.9390619 207.67370557 88.82125463 206.92272241 83.03125 205.41796875 C82.36943222 205.24800888 81.70761444 205.07804901 81.02574158 204.90293884 C78.84796056 204.34039384 76.67392982 203.76473558 74.5 203.1875 C72.97147773 202.78678568 71.44291242 202.3862355 69.91430664 201.98583984 C64.93778691 200.67600162 59.96853577 199.33975281 55 198 C53.66808624 197.64213409 53.66808624 197.64213409 52.30926514 197.27703857 C46.88660591 195.81883941 41.46885003 194.34409802 36.05664062 192.8475647 C34.31296866 192.36652302 32.56833543 191.88895203 30.82275391 191.41488647 C28.37723445 190.74881682 25.93631813 190.06798999 23.49609375 189.3828125 C22.76438461 189.18622543 22.03267548 188.98963837 21.27879333 188.78709412 C16.22881925 187.34322888 16.22881925 187.34322888 14 184 C13.53526115 181.3095808 13.53526115 181.3095808 13.22799683 177.99467468 C13.10744934 176.73812576 12.98690186 175.48157684 12.86270142 174.18695068 C12.73755245 172.79090963 12.61258927 171.39485192 12.48779297 169.9987793 C12.35026449 168.52972494 12.21202243 167.06073723 12.07312012 165.59181213 C11.69721653 161.59083666 11.33238131 157.58892372 10.97020483 153.58668494 C10.66524472 150.22640536 10.35524481 146.86659804 10.04536164 143.50676948 C9.31144983 135.54714241 8.58681367 127.58670677 7.86767578 119.62573242 C7.13238213 111.48785801 6.38107432 103.35157927 5.62153137 95.21593541 C4.96612101 88.18875857 4.32159852 81.16063568 3.6851207 74.13171893 C3.30669698 69.95401217 2.92452943 65.77674883 2.5316124 61.60037804 C2.15971616 57.64269633 1.8018114 53.68395622 1.45303345 49.72417259 C1.32547081 48.29955694 1.19365962 46.87531115 1.05633926 45.45160294 C-0.4044802 30.24167373 0 15.39920047 0 0 Z " fill="#E34E28" transform="translate(1,37)"/>
<path d="M0 0 C58.41 0 116.82 0 177 0 C177 41.19830137 176.45453125 80.62988055 172.42266846 121.37939453 C171.80604736 127.68500098 171.22662743 133.99404329 170.64257812 140.30273438 C169.79021608 149.45367511 168.92595457 158.60331536 168.03149414 167.75024414 C167.89662598 169.13887413 167.89662598 169.13887413 167.7590332 170.55555725 C167.51442325 173.03798171 167.25823785 175.51896286 167 178 C166.89100451 179.16226215 166.89100451 179.16226215 166.77980709 180.34800434 C166.21297634 185.79609943 166.21297634 185.79609943 164.12084961 187.79907227 C159.51071766 189.57308768 154.83108727 190.92032701 150.06640625 192.21484375 C148.99688217 192.51185684 147.92735809 192.80886993 146.82542419 193.11488342 C143.40634236 194.06276478 139.98454001 195.00036081 136.5625 195.9375 C133.18087043 196.87135428 129.79981633 197.80727123 126.41879272 198.74331665 C124.238434 199.34577062 122.05746974 199.94603767 119.87588501 200.54403687 C115.41389022 201.7681646 110.95680807 202.99649394 106.52685547 204.33251953 C104.70178467 204.88141846 104.70178467 204.88141846 102.83984375 205.44140625 C101.35859009 205.90268921 101.35859009 205.90268921 99.84741211 206.37329102 C93.9390619 207.67370557 88.82125463 206.92272241 83.03125 205.41796875 C82.36943222 205.24800888 81.70761444 205.07804901 81.02574158 204.90293884 C78.84796056 204.34039384 76.67392982 203.76473558 74.5 203.1875 C72.97147773 202.78678568 71.44291242 202.3862355 69.91430664 201.98583984 C64.93778691 200.67600162 59.96853577 199.33975281 55 198 C53.66808624 197.64213409 53.66808624 197.64213409 52.30926514 197.27703857 C46.88660591 195.81883941 41.46885003 194.34409802 36.05664062 192.8475647 C34.31296866 192.36652302 32.56833543 191.88895203 30.82275391 191.41488647 C28.37723445 190.74881682 25.93631813 190.06798999 23.49609375 189.3828125 C22.76438461 189.18622543 22.03267548 188.98963837 21.27879333 188.78709412 C16.22881925 187.34322888 16.22881925 187.34322888 14 184 C13.53526115 181.29282093 13.53526115 181.29282093 13.22799683 177.95429993 C13.10744934 176.68908005 12.98690186 175.42386017 12.86270142 174.12030029 C12.73755677 172.71473726 12.61259343 171.30915808 12.48779297 169.90356445 C12.35027271 168.42477465 12.21203052 166.94605183 12.07312012 165.46739197 C11.69733739 161.44201196 11.33252339 157.41570714 10.97020483 153.38909554 C10.66545743 150.01331992 10.35540312 146.63804033 10.04536164 143.26274747 C9.31169168 135.27457401 8.58688492 127.28563004 7.86767578 119.29614258 C7.1306796 111.11060625 6.37975981 102.92643667 5.62153137 94.74284202 C4.96808163 87.68500871 4.32327844 80.62642033 3.6851207 73.56718796 C3.30530148 69.36634246 2.92256698 65.16582283 2.5316124 60.9659977 C0.82659252 42.6078325 -0.48711287 24.46217117 0 6 C0.33 6 0.66 6 1 6 C6.28 63.75 11.56 121.5 17 181 C53.73483928 191.99714703 53.73483928 191.99714703 91 201 C91 188.46 91 175.92 91 163 C98.92 161.02 98.92 161.02 107 159 C111.09819903 157.80179774 115.17694792 156.58775983 119.25 155.3125 C121.21328554 154.70360065 123.17681711 154.09549384 125.140625 153.48828125 C126.40181152 153.09443237 126.40181152 153.09443237 127.68847656 152.69262695 C129.7750032 152.06741824 131.88685251 151.52828687 134 151 C135.98 128.56 137.96 106.12 140 83 C123.83 83 107.66 83 91 83 C93.53453274 81.31031151 95.71960587 80.18385122 98.5 79.01171875 C99.38163818 78.63764893 100.26327637 78.2635791 101.17163086 77.87817383 C102.10499268 77.48525146 103.03835449 77.0923291 104 76.6875 C112.5056902 73.08428997 112.5056902 73.08428997 120.9375 69.3125 C125.1081513 67.39788319 129.29431308 65.52369507 133.5 63.6875 C134.6653125 63.17574219 135.830625 62.66398437 137.03125 62.13671875 C140 61 140 61 143 61 C142.98839844 60.41734375 142.97679687 59.8346875 142.96484375 59.234375 C142.88913356 52.35556369 143.42204611 45.93544673 144 39 C126.51 39 109.02 39 91 39 C91 26.46 91 13.92 91 1 C60.97 1 30.94 1 0 1 C0 0.67 0 0.34 0 0 Z " fill="#0271B9" transform="translate(1,37)"/>
<path d="M0 0 C36.68392979 -0.13658564 73.32485069 0.14998113 110 1 C110.01364102 2.88018771 110.0232612 4.76040478 110.03125 6.640625 C110.03705078 7.68766602 110.04285156 8.73470703 110.04882812 9.81347656 C109.98093285 14.24432207 109.54447334 18.60532234 109 23 C102.58956656 25.69787329 96.1620142 28.33436785 89.6875 30.875 C83.14390598 33.45877662 76.78636643 36.35847654 70.4375 39.38671875 C66.99401838 41.00280728 63.49629381 42.50158837 60 44 C75.18 44.33 90.36 44.66 106 45 C106 57.375 106 57.375 105.54101562 62.48120117 C105.44091187 63.62155319 105.34080811 64.76190521 105.2376709 65.93681335 C105.128302 67.12684464 105.01893311 68.31687592 104.90625 69.54296875 C104.73977966 71.41738396 104.73977966 71.41738396 104.56994629 73.32966614 C104.27749363 76.6128841 103.98089597 79.89569097 103.68218994 83.17834473 C103.37701914 86.54370898 103.07743419 89.90957024 102.77734375 93.27539062 C102.18997697 99.85072432 101.59713214 106.42554633 101 113 C94.03876286 115.65975178 87.00753323 117.9472133 79.8659668 120.0715332 C78.50370359 120.48016358 77.14361482 120.89611869 75.78588867 121.31958008 C63.40360719 125.17788158 52.60359785 126.65171533 40.08984375 122.3515625 C34.41028152 120.40985747 28.5974032 118.90412438 22.8125 117.3125 C20.61014343 116.70636274 18.40828406 116.09841476 16.20703125 115.48828125 C15.2528833 115.22571533 14.29873535 114.96314941 13.31567383 114.69262695 C11 114 11 114 9 113 C8.49755859 110.42724609 8.49755859 110.42724609 8.1484375 107.0234375 C7.95507812 105.18072266 7.95507812 105.18072266 7.7578125 103.30078125 C7.56832031 101.35751953 7.56832031 101.35751953 7.375 99.375 C7.2409375 98.10269531 7.106875 96.83039063 6.96875 95.51953125 C6.36465271 89.60800779 6 83.96274124 6 78 C13.59 78 21.18 78 29 78 C30.2062252 81.61867559 30.10816918 84.92506251 30.0625 88.6875 C30.05798828 89.38939453 30.05347656 90.09128906 30.04882812 90.81445312 C30.03706927 92.54300538 30.01913454 94.27151365 30 96 C31.216875 96.0825 32.43375 96.165 33.6875 96.25 C39.06220894 96.82159603 43.97434248 98.44538858 49.08203125 100.16015625 C52.13458785 101.18439308 52.13458785 101.18439308 56 101 C56.33 89.78 56.66 78.56 57 67 C39.84 67 22.68 67 5 67 C4.22626531 63.90506124 3.77654584 61.30209174 3.51928711 58.16235352 C3.39927589 56.72419029 3.39927589 56.72419029 3.27684021 55.25697327 C3.19450638 54.22471115 3.11217255 53.19244904 3.02734375 52.12890625 C2.8962899 50.5189402 2.8962899 50.5189402 2.7625885 48.87644958 C2.57852166 46.60112191 2.39623042 44.32565 2.21557617 42.05004883 C1.94099978 38.60639326 1.65737881 35.16356514 1.37304688 31.72070312 C0.51489645 21.12374488 -0.28946371 10.63724456 0 0 Z " fill="#FBFDFC" transform="translate(35,75)"/>
<path d="M0 0 C0.33 0 0.66 0 1 0 C1 4.95 1 9.9 1 15 C23.77 15 46.54 15 70 15 C70 30.75 70 30.75 69.42089844 36.9753418 C69.35897214 37.66015625 69.29704584 38.3449707 69.23324299 39.05053711 C69.03129228 41.26736536 68.82044481 43.48324191 68.609375 45.69921875 C68.46269861 47.28932184 68.31658933 48.87947732 68.17100525 50.46968079 C67.78424322 54.67731033 67.38978076 58.88418318 66.99367905 63.09094238 C66.58470028 67.44887523 66.18297554 71.80747663 65.78051758 76.16601562 C65.07174703 83.83123387 64.35720698 91.49589878 63.63957119 99.16029167 C62.99268919 106.07121642 62.35256191 112.98275491 61.71484375 119.89453125 C60.17152363 136.59907754 58.59442206 153.30025602 57 170 C54.01710261 171.23998633 51.12523292 172.30589663 47.98046875 173.04296875 C47.21694092 173.22633789 46.45341309 173.40970703 45.66674805 173.59863281 C44.84859619 173.79295898 44.03044434 173.98728516 43.1875 174.1875 C34.08028656 176.39541273 25.10184844 178.95454745 16.13549805 181.67651367 C15.17683838 181.96373291 14.21817871 182.25095215 13.23046875 182.546875 C12.38895264 182.80307617 11.54743652 183.05927734 10.68041992 183.32324219 C7.5052074 184.12492623 4.24194053 184.53686564 1 185 C1 189.95 1 194.9 1 200 C0.67 200 0.34 200 0 200 C0 187.46 0 174.92 0 162 C7.92 160.02 7.92 160.02 16 158 C20.09819903 156.80179774 24.17694792 155.58775983 28.25 154.3125 C30.21328554 153.70360065 32.17681711 153.09549384 34.140625 152.48828125 C35.40181152 152.09443237 35.40181152 152.09443237 36.68847656 151.69262695 C38.7750032 151.06741824 40.88685251 150.52828687 43 150 C44.98 127.56 46.96 105.12 49 82 C32.83 82 16.66 82 0 82 C2.53453274 80.31031151 4.71960587 79.18385122 7.5 78.01171875 C8.82245728 77.45061401 8.82245728 77.45061401 10.17163086 76.87817383 C11.10499268 76.48525146 12.03835449 76.0923291 13 75.6875 C21.5056902 72.08428997 21.5056902 72.08428997 29.9375 68.3125 C34.1081513 66.39788319 38.29431308 64.52369507 42.5 62.6875 C43.6653125 62.17574219 44.830625 61.66398437 46.03125 61.13671875 C49 60 49 60 52 60 C51.98839844 59.41734375 51.97679687 58.8346875 51.96484375 58.234375 C51.88913356 51.35556369 52.42204611 44.93544673 53 38 C35.51 38 18.02 38 0 38 C0 25.46 0 12.92 0 0 Z " fill="#28A8DF" transform="translate(92,38)"/>
<path d="M0 0 C36.68392979 -0.13658564 73.32485069 0.14998113 110 1 C110.01364102 2.88018771 110.0232612 4.76040478 110.03125 6.640625 C110.03705078 7.68766602 110.04285156 8.73470703 110.04882812 9.81347656 C109.98093285 14.24432207 109.54447334 18.60532234 109 23 C102.58956656 25.69787329 96.1620142 28.33436785 89.6875 30.875 C83.23682669 33.42070621 76.97806796 36.28174356 70.73046875 39.2890625 C70.13395508 39.56041016 69.53744141 39.83175781 68.92285156 40.11132812 C67.57388885 40.7347695 66.24332357 41.3988516 64.92871094 42.09179688 C56.83572199 45.96191008 48.61644438 45.44918166 39.875 45.25 C38.33075246 45.2298943 36.7864795 45.21165076 35.2421875 45.1953125 C31.49363624 45.15509199 27.74868368 45.07676485 24 45 C24 40.38 24 35.76 24 31 C23.34 31 22.68 31 22 31 C22 29.68 22 28.36 22 27 C19.69 27.99 17.38 28.98 15 30 C15 28.68 15 27.36 15 26 C15.99 25.67 16.98 25.34 18 25 C18.33 24.34 18.66 23.68 19 23 C20.32 23 21.64 23 23 23 C23.12375 22.2575 23.2475 21.515 23.375 20.75 C23.95486701 18.19858515 24.73708739 16.2732427 26 14 C25.01 13.67 24.02 13.34 23 13 C23.33 11.35 23.66 9.7 24 8 C23.34 7.67 22.68 7.34 22 7 C22.99 7 23.98 7 25 7 C25 6.34 25 5.68 25 5 C22.69 4.67 20.38 4.34 18 4 C17.67 5.32 17.34 6.64 17 8 C16.67 6.35 16.34 4.7 16 3 C14.88625 3.2784375 14.88625 3.2784375 13.75 3.5625 C11.05009037 3.99203108 9.55368923 3.85122974 7 3 C7 3.99 7 4.98 7 6 C6.01 6 5.02 6 4 6 C4 7.32 4 8.64 4 10 C4.66 10 5.32 10 6 10 C6 9.34 6 8.68 6 8 C6.66 8.33 7.32 8.66 8 9 C7.67 9.66 7.34 10.32 7 11 C7.66 11.33 8.32 11.66 9 12 C8.34 12.53625 7.68 13.0725 7 13.625 C4.72980455 15.86982061 4.72980455 15.86982061 4.6875 19 C4.91812406 21.89676512 4.91812406 21.89676512 5.5625 24.25 C6 26 6 26 5 28 C4.90535589 29.3398391 4.86927851 30.68416768 4.8671875 32.02734375 C4.86589844 32.81947266 4.86460938 33.61160156 4.86328125 34.42773438 C4.86714844 35.25595703 4.87101562 36.08417969 4.875 36.9375 C4.87113281 37.76185547 4.86726563 38.58621094 4.86328125 39.43554688 C4.86457031 40.22896484 4.86585937 41.02238281 4.8671875 41.83984375 C4.86831543 42.56550537 4.86944336 43.29116699 4.87060547 44.03881836 C4.93110986 46.21513864 4.93110986 46.21513864 6 49 C6.08021999 50.40824893 6.10765977 51.81997231 6.09765625 53.23046875 C6.09443359 54.03291016 6.09121094 54.83535156 6.08789062 55.66210938 C6.07532227 56.91217773 6.07532227 56.91217773 6.0625 58.1875 C6.05798828 59.03248047 6.05347656 59.87746094 6.04882812 60.74804688 C6.03705403 62.83206155 6.0191189 64.91603977 6 67 C4.29490944 63.99370447 3.67813808 61.5974044 3.40576172 58.16235352 C3.32582977 57.20357803 3.24589783 56.24480255 3.1635437 55.25697327 C3.08637115 54.22471115 3.00919861 53.19244904 2.9296875 52.12890625 C2.80075607 50.5189402 2.80075607 50.5189402 2.66921997 48.87644958 C2.48886905 46.60129542 2.31261369 44.32581345 2.14013672 42.05004883 C1.87831105 38.60605279 1.60236282 35.16341535 1.32421875 31.72070312 C0.48681754 21.12662426 -0.28014004 10.63205796 0 0 Z " fill="#EFE0DC" transform="translate(35,75)"/>
<path d="M0 0 C8.25 0 16.5 0 25 0 C25 11.25 25 11.25 24.5625 15.3515625 C24.47226563 16.22167969 24.38203125 17.09179688 24.2890625 17.98828125 C24.19367188 18.85839844 24.09828125 19.72851562 24 20.625 C23.90460938 21.53378906 23.80921875 22.44257813 23.7109375 23.37890625 C23.47856232 25.58647043 23.24153511 27.79342261 23 30 C21.79214844 30.29777344 20.58429688 30.59554687 19.33984375 30.90234375 C16.05913721 31.72306271 12.80401895 32.59661838 9.5625 33.5625 C8.71816406 33.81128906 7.87382813 34.06007812 7.00390625 34.31640625 C5.02644619 34.82657356 5.02644619 34.82657356 4 36 C2.02 36 0.04 36 -2 36 C-2 42.93 -2 49.86 -2 57 C-1.01 57.495 -1.01 57.495 0 58 C-6.17229162 58.4841013 -10.88593349 57.27794489 -16.734375 55.3515625 C-23.61288724 53.11518189 -30.62171438 51.29423483 -37.59350586 49.37475586 C-38.64932861 49.08221924 -39.70515137 48.78968262 -40.79296875 48.48828125 C-41.7471167 48.22571533 -42.70126465 47.96314941 -43.68432617 47.69262695 C-46 47 -46 47 -48 46 C-48.50244141 43.42724609 -48.50244141 43.42724609 -48.8515625 40.0234375 C-48.98046875 38.79496094 -49.109375 37.56648438 -49.2421875 36.30078125 C-49.36851563 35.00527344 -49.49484375 33.70976562 -49.625 32.375 C-49.7590625 31.10269531 -49.893125 29.83039063 -50.03125 28.51953125 C-50.63534729 22.60800779 -51 16.96274124 -51 11 C-43.41 11 -35.82 11 -28 11 C-26.7937748 14.61867559 -26.89183082 17.92506251 -26.9375 21.6875 C-26.94201172 22.38939453 -26.94652344 23.09128906 -26.95117188 23.81445312 C-26.96293073 25.54300538 -26.98086546 27.27151365 -27 29 C-25.783125 29.0825 -24.56625 29.165 -23.3125 29.25 C-17.93779106 29.82159603 -13.02565752 31.44538858 -7.91796875 33.16015625 C-4.86541215 34.18439308 -4.86541215 34.18439308 -1 34 C-0.67 22.78 -0.34 11.56 0 0 Z " fill="#EEE9E9" transform="translate(92,142)"/>
<path d="M0 0 C0.96278366 0.00222061 1.92556732 0.00444122 2.91752625 0.00672913 C4.0056813 0.00680466 5.09383636 0.00688019 6.21496582 0.00695801 C7.99298836 0.01469994 7.99298836 0.01469994 9.80693054 0.02259827 C11.01681137 0.02401321 12.2266922 0.02542816 13.47323608 0.02688599 C17.3592318 0.03250446 21.24517089 0.04505132 25.13114929 0.05775452 C27.74247658 0.0627679 30.35380478 0.06733109 32.96513367 0.07142639 C38.7288881 0.08128396 44.49261317 0.09551344 50.25634766 0.11352539 C52.44377514 0.11927002 54.63121426 0.12025452 56.81864929 0.12025452 C64.15198263 0.12025452 71.48531596 0.12025452 78.81864929 0.12025452 C80.14094119 2.76483831 79.91542123 4.79786753 79.88114929 7.74525452 C79.87212585 8.74814514 79.86310242 9.75103577 79.85380554 10.78431702 C79.84220398 11.55517639 79.83060242 12.32603577 79.81864929 13.12025452 C81.11802429 13.09962952 82.41739929 13.07900452 83.75614929 13.05775452 C85.11030562 13.03625997 86.46621012 13.04877253 87.81864929 13.12025452 C88.81864929 14.12025452 88.81864929 14.12025452 88.95146179 16.58900452 C88.94888367 17.58931702 88.94630554 18.58962952 88.94364929 19.62025452 C88.94751648 21.12072327 88.94751648 21.12072327 88.95146179 22.65150452 C88.81864929 25.12025452 88.81864929 25.12025452 87.81864929 26.12025452 C85.60009665 26.20808993 83.37876433 26.2272006 81.15849304 26.21791077 C80.16179344 26.21578835 80.16179344 26.21578835 79.1449585 26.21362305 C77.0153103 26.2080097 74.8857659 26.19545505 72.75614929 26.18275452 C71.3153956 26.17774123 69.87464026 26.17317803 68.43388367 26.16908264 C64.89543827 26.15803597 61.3570539 26.14076243 57.81864929 26.12025452 C57.32364929 24.63525452 57.32364929 24.63525452 56.81864929 23.12025452 C53.70079816 23.76670113 53.70079816 23.76670113 52.81864929 26.12025452 C51.00622877 26.14712731 49.19369696 26.16659167 47.38114929 26.18275452 C46.37181335 26.19435608 45.36247742 26.20595764 44.32255554 26.21791077 C41.81864929 26.12025452 41.81864929 26.12025452 40.81864929 25.12025452 C40.74620876 23.10061253 40.73487741 21.07858328 40.75614929 19.05775452 C40.76517273 17.95302795 40.77419617 16.84830139 40.78349304 15.71009827 C40.7950946 14.85544983 40.80669617 14.00080139 40.81864929 13.12025452 C40.15864929 13.12025452 39.49864929 13.12025452 38.81864929 13.12025452 C38.84185242 13.80732483 38.86505554 14.49439514 38.88896179 15.20228577 C38.90700867 16.10334045 38.92505554 17.00439514 38.94364929 17.93275452 C38.96685242 18.82607483 38.99005554 19.71939514 39.01396179 20.63978577 C38.81864929 23.12025452 38.81864929 23.12025452 36.81864929 26.12025452 C34.21708679 26.41322327 34.21708679 26.41322327 31.19364929 26.30775452 C29.68931335 26.26714905 29.68931335 26.26714905 28.15458679 26.22572327 C27.38372742 26.19091858 26.61286804 26.15611389 25.81864929 26.12025452 C24.4963574 23.47567073 24.72187735 21.44264151 24.75614929 18.49525452 C24.76517273 17.49236389 24.77419617 16.48947327 24.78349304 15.45619202 C24.7950946 14.68533264 24.80669617 13.91447327 24.81864929 13.12025452 C24.15864929 13.12025452 23.49864929 13.12025452 22.81864929 13.12025452 C22.83025085 13.97490295 22.84185242 14.82955139 22.85380554 15.71009827 C22.86282898 16.81482483 22.87185242 17.91955139 22.88114929 19.05775452 C22.89275085 20.15990295 22.90435242 21.26205139 22.91630554 22.39759827 C22.81864929 25.12025452 22.81864929 25.12025452 21.81864929 26.12025452 C20.05005736 26.21971905 18.27753478 26.25105669 16.50614929 26.25306702 C15.43107117 26.25435608 14.35599304 26.25564514 13.24833679 26.25697327 C12.11653992 26.25310608 10.98474304 26.24923889 9.81864929 26.24525452 C8.68685242 26.2491217 7.55505554 26.25298889 6.38896179 26.25697327 C5.31388367 26.2556842 4.23880554 26.25439514 3.13114929 26.25306702 C2.1372821 26.25193909 1.14341492 26.25081116 0.11943054 26.24964905 C-2.18135071 26.12025452 -2.18135071 26.12025452 -3.18135071 25.12025452 C-3.28081524 23.35166259 -3.31215288 21.57914001 -3.31416321 19.80775452 C-3.31545227 18.73267639 -3.31674133 17.65759827 -3.31806946 16.54994202 C-3.31226868 14.8522467 -3.31226868 14.8522467 -3.30635071 13.12025452 C-3.3102179 11.98845764 -3.31408508 10.85666077 -3.31806946 9.69056702 C-3.3167804 8.61548889 -3.31549133 7.54041077 -3.31416321 6.43275452 C-3.31303528 5.43888733 -3.31190735 4.44502014 -3.31074524 3.42103577 C-3.1404375 0.39277143 -3.02496932 0.16676192 0 0 Z " fill="#060606" transform="translate(49.18135070800781,1.8797454833984375)"/>
<path d="M0 0 C2.97 0 5.94 0 9 0 C9.33 0.66 9.66 1.32 10 2 C10.33 1.67 10.66 1.34 11 1 C13.33944736 1.28730055 15.6739143 1.61936779 18 2 C17.67 2.99 17.34 3.98 17 5 C17.43434932 7.77933053 17.43434932 7.77933053 19 10 C19.33 10.66 19.66 11.32 20 12 C19.22265625 13.9453125 19.22265625 13.9453125 18.0625 16.125 C17.68222656 16.84945312 17.30195312 17.57390625 16.91015625 18.3203125 C16.60980469 18.87460938 16.30945313 19.42890625 16 20 C14.68 20 13.36 20 12 20 C11.67 20.99 11.34 21.98 11 23 C10.01 23 9.02 23 8 23 C8.33 23.99 8.66 24.98 9 26 C10.98 25.34 12.96 24.68 15 24 C15 25.32 15 26.64 15 28 C15.66 28 16.32 28 17 28 C17 32.62 17 37.24 17 42 C44.06 42 71.12 42 99 42 C99 45.63 99 49.26 99 53 C98.67 53 98.34 53 98 53 C98 49.7 98 46.4 98 43 C81.5 43 65 43 48 43 C48 49.6 48 56.2 48 63 C48.99 63.495 48.99 63.495 50 64 C33.17 64 16.34 64 -1 64 C-1.33 58.06 -1.66 52.12 -2 46 C-2.495 44.515 -2.495 44.515 -3 43 C-3.09126911 41.63905708 -3.13065452 40.27415442 -3.1328125 38.91015625 C-3.13410156 38.12576172 -3.13539062 37.34136719 -3.13671875 36.53320312 C-3.13285156 35.71787109 -3.12898438 34.90253906 -3.125 34.0625 C-3.12886719 33.25103516 -3.13273437 32.43957031 -3.13671875 31.60351562 C-3.13542969 30.81783203 -3.13414063 30.03214844 -3.1328125 29.22265625 C-3.13168457 28.50859619 -3.13055664 27.79453613 -3.12939453 27.05883789 C-3 25 -3 25 -2.42919922 22.86108398 C-1.77389397 20.92156986 -1.77389397 20.92156986 -3 19 C-3.40500489 14.34244382 -2.77529132 12.6199452 0 9 C-0.21717352 6.79199472 -0.21717352 6.79199472 -1 5 C-1 5.66 -1 6.32 -1 7 C-1.66 7 -2.32 7 -3 7 C-3 5.68 -3 4.36 -3 3 C-2.01 3 -1.02 3 0 3 C0 2.01 0 1.02 0 0 Z " fill="#ECEBEB" transform="translate(42,78)"/>
<path d="M0 0 C0.33 0 0.66 0 1 0 C6.28 57.75 11.56 115.5 17 175 C51.49046305 185.28402115 51.49046305 185.28402115 86.37109375 194.28125 C87.46635376 194.5297168 87.46635376 194.5297168 88.58374023 194.78320312 C95.00507908 195.35935235 101.27246917 193.22079279 107.38671875 191.48828125 C108.28381058 191.2375737 109.1809024 190.98686615 110.10517883 190.7285614 C112.00438019 190.19686151 113.90298566 189.6630291 115.80102539 189.12719727 C118.63231278 188.3280764 121.4653605 187.53549172 124.29882812 186.74414062 C136.57607089 183.30435952 148.80044077 179.7054077 161 176 C163.08915752 161.18583794 164.27487134 146.28296762 165.56027603 131.38274384 C166.0814652 125.35220739 166.60944728 119.32225827 167.13602638 113.29219055 C167.34092054 110.94469438 167.54542721 108.59716464 167.74992371 106.24963379 C168.64197822 96.02159056 169.55411513 85.79549578 170.48191452 75.57063484 C170.69019965 73.27501729 170.89808796 70.97936411 171.10586548 68.68370056 C172.20446832 56.54977261 172.20446832 56.54977261 172.70275879 51.11264038 C174.04878036 36.41927614 175.36152173 21.74395596 176 7 C176.33 7 176.66 7 177 7 C177.73820577 43.11414782 175.89464274 78.5460791 172.42266846 114.48675537 C171.81090612 120.87879579 171.22857174 127.27352424 170.64257812 133.66796875 C169.78643935 142.96132547 168.92136179 152.25375277 168.03149414 161.54394531 C167.89662598 162.96321068 167.89662598 162.96321068 167.7590332 164.41114807 C167.51495867 166.94175965 167.25914871 169.47089463 167 172 C166.92733634 172.77903907 166.85467268 173.55807814 166.77980709 174.36072445 C166.21449616 179.79464438 166.21449616 179.79464438 164.12084961 181.79907227 C159.51071766 183.57308768 154.83108727 184.92032701 150.06640625 186.21484375 C148.99688217 186.51185684 147.92735809 186.80886993 146.82542419 187.11488342 C143.40634236 188.06276478 139.98454001 189.00036081 136.5625 189.9375 C133.18087043 190.87135428 129.79981633 191.80727123 126.41879272 192.74331665 C124.238434 193.34577062 122.05746974 193.94603767 119.87588501 194.54403687 C115.41389022 195.7681646 110.95680807 196.99649394 106.52685547 198.33251953 C104.70178467 198.88141846 104.70178467 198.88141846 102.83984375 199.44140625 C101.35859009 199.90268921 101.35859009 199.90268921 99.84741211 200.37329102 C93.9390619 201.67370557 88.82125463 200.92272241 83.03125 199.41796875 C82.36943222 199.24800888 81.70761444 199.07804901 81.02574158 198.90293884 C78.84796056 198.34039384 76.67392982 197.76473558 74.5 197.1875 C72.97147773 196.78678568 71.44291242 196.3862355 69.91430664 195.98583984 C64.93778691 194.67600162 59.96853577 193.33975281 55 192 C53.66808624 191.64213409 53.66808624 191.64213409 52.30926514 191.27703857 C46.88660591 189.81883941 41.46885003 188.34409802 36.05664062 186.8475647 C34.31296866 186.36652302 32.56833543 185.88895203 30.82275391 185.41488647 C28.37723445 184.74881682 25.93631813 184.06798999 23.49609375 183.3828125 C22.76438461 183.18622543 22.03267548 182.98963837 21.27879333 182.78709412 C16.22881925 181.34322888 16.22881925 181.34322888 14 178 C13.53526115 175.29282093 13.53526115 175.29282093 13.22799683 171.95429993 C13.10744934 170.68908005 12.98690186 169.42386017 12.86270142 168.12030029 C12.73755677 166.71473726 12.61259343 165.30915808 12.48779297 163.90356445 C12.35027271 162.42477465 12.21203052 160.94605183 12.07312012 159.46739197 C11.69733739 155.44201196 11.33252339 151.41570714 10.97020483 147.38909554 C10.66545743 144.01331992 10.35540312 140.63804033 10.04536164 137.26274747 C9.31169168 129.27457401 8.58688492 121.28563004 7.86767578 113.29614258 C7.1306796 105.11060625 6.37975981 96.92643667 5.62153137 88.74284202 C4.96808163 81.68500871 4.32327844 74.62642033 3.6851207 67.56718796 C3.30530148 63.36634246 2.92256698 59.16582283 2.5316124 54.9659977 C0.82659252 36.6078325 -0.48711287 18.46217117 0 0 Z " fill="#000000" transform="translate(1,43)"/>
<path d="M0 0 C18.15 0 36.3 0 55 0 C55 7.54155613 54.91871033 14.5846952 54 22 C47.58956656 24.69787329 41.1620142 27.33436785 34.6875 29.875 C28.19287868 32.43348719 21.90853242 35.33309664 15.6328125 38.38671875 C11.53571036 40.20618454 7.25288509 41.58237164 3 43 C2.67 35.74 2.34 28.48 2 21 C1.34 20.67 0.68 20.34 0 20 C-0.44921875 18.06640625 -0.44921875 18.06640625 -0.6875 15.5625 C-0.77386719 14.75941406 -0.86023438 13.95632812 -0.94921875 13.12890625 C-1.02042089 8.74175876 -0.43659498 4.3659498 0 0 Z " fill="#F9FBFA" transform="translate(90,76)"/>
<path d="M0 0 C8.25 0 16.5 0 25 0 C25 11.25 25 11.25 24.5625 15.3515625 C24.47226563 16.22167969 24.38203125 17.09179688 24.2890625 17.98828125 C24.14597656 19.29345703 24.14597656 19.29345703 24 20.625 C23.90460938 21.53378906 23.80921875 22.44257813 23.7109375 23.37890625 C23.47856232 25.58647043 23.24153511 27.79342261 23 30 C21.78570312 30.29648438 20.57140625 30.59296875 19.3203125 30.8984375 C15.31452921 31.89856041 11.41093707 33.11637822 7.4921875 34.4140625 C5 35 5 35 -1 35 C-0.67 23.45 -0.34 11.9 0 0 Z " fill="#29A9DD" transform="translate(92,142)"/>
<path d="M0 0 C10.89 0 21.78 0 33 0 C33 7.26 33 14.52 33 22 C22.77 22 12.54 22 2 22 C1.67 19.48375 1.34 16.9675 1 14.375 C0.89558594 13.59431152 0.79117188 12.81362305 0.68359375 12.00927734 C0.60238281 11.3745752 0.52117188 10.73987305 0.4375 10.0859375 C0.35371094 9.4470459 0.26992188 8.8081543 0.18359375 8.14990234 C-0.04761415 5.44243323 0 2.71732333 0 0 Z " fill="#E14E27" transform="translate(59,98)"/>
<path d="M0 0 C58.41 0 116.82 0 177 0 C177 8.35809852 176.90984418 16.50611839 176.3125 24.8125 C176.2314502 25.97160889 176.15040039 27.13071777 176.06689453 28.32495117 C174.36534797 51.57416025 172.12034394 74.78610476 170 98 C169.67 98 169.34 98 169 98 C168.72487448 85.78470473 169.46013185 73.63061906 170.171875 61.44116211 C170.37472313 57.94227572 170.56659426 54.44289831 170.7578125 50.94335938 C171.87419648 31.18779607 171.87419648 31.18779607 173.51742554 22.19993591 C174.07243782 18.51966711 174.33935371 14.84810387 174.56005859 11.13647461 C174.60341843 10.44728691 174.64677826 9.75809921 174.69145203 9.04802704 C174.79693101 7.36551415 174.89883588 5.68277784 175 4 C173.52208481 4.00333092 173.52208481 4.00333092 172.01431274 4.00672913 C162.74376653 4.02697219 153.47322479 4.04197778 144.20266151 4.05181217 C139.4362051 4.05703803 134.66976648 4.06413031 129.90332031 4.07543945 C125.3062561 4.08627885 120.70920903 4.09227908 116.11213303 4.09487724 C114.35539861 4.09672958 112.59866516 4.10034657 110.84193802 4.10573006 C108.38760576 4.11295443 105.93334503 4.11399035 103.47900391 4.11352539 C102.74748611 4.11712067 102.01596832 4.12071594 101.26228333 4.12442017 C96.22810432 4.11405216 96.22810432 4.11405216 94 3 C94 7.29 94 11.58 94 16 C93.34 16 92.68 16 92 16 C92 11.05 92 6.1 92 1 C61.64 1 31.28 1 0 1 C0 0.67 0 0.34 0 0 Z " fill="#0E4366" transform="translate(1,37)"/>
<path d="M0 0 C0.33 0 0.66 0 1 0 C1.74880313 8.70483635 2.07068304 17.31825914 2.03125 26.05078125 C2.02899414 27.01262329 2.02673828 27.97446533 2.02441406 28.9654541 C2.0185865 31.31031967 2.01040634 33.65515105 2 36 C2.64701874 35.99555878 3.29403748 35.99111755 3.96066284 35.98654175 C10.67606403 35.94240075 17.39142422 35.91217212 24.10693359 35.89013672 C26.61541415 35.88005989 29.12388292 35.86639821 31.63232422 35.84912109 C35.23147488 35.82494663 38.83047067 35.81353388 42.4296875 35.8046875 C43.55680145 35.79436493 44.68391541 35.78404236 45.84518433 35.77340698 C46.88611237 35.77325592 47.92704041 35.77310486 48.99951172 35.77294922 C49.91884491 35.768508 50.8381781 35.76406677 51.78536987 35.75949097 C54 36 54 36 56 38 C56.16699219 40.12304687 56.16699219 40.12304687 56.046875 42.71875 C56.00433594 43.65074219 55.96179688 44.58273438 55.91796875 45.54296875 C55.86253906 46.51878906 55.80710938 47.49460938 55.75 48.5 C55.71003906 49.47582031 55.67007813 50.45164063 55.62890625 51.45703125 C55.25599034 58.74400966 55.25599034 58.74400966 53 61 C52.01 61 51.02 61 50 61 C49.80921875 61.60585937 49.6184375 62.21171875 49.421875 62.8359375 C47.31515102 66.0423251 44.84603158 66.4490825 41.25 67.625 C40.03828125 68.02976562 38.8265625 68.43453125 37.578125 68.8515625 C35.2862161 69.58717518 32.98447506 70.29321495 30.671875 70.9609375 C27.70497105 71.82024887 27.70497105 71.82024887 26 75 C24.02111039 75.72693904 22.02045442 76.39816251 20 77 C19.67 77.33 19.34 77.66 19 78 C17.2675 78.2165625 17.2675 78.2165625 15.5 78.4375 C14.345 78.623125 13.19 78.80875 12 79 C11.505 79.99 11.505 79.99 11 81 C23.87 81 36.74 81 50 81 C50.41834314 97.31538262 49.58669067 113.20137872 48.125 129.4375 C48.03786743 130.43704712 47.95073486 131.43659424 47.86096191 132.46643066 C47.6083959 135.33162696 47.34211508 138.19516486 47.0703125 141.05859375 C46.99311981 141.93150558 46.91592712 142.80441742 46.83639526 143.70378113 C46.23121 149.76879 46.23121 149.76879 44 152 C36.17514734 155.15739669 28.1349515 157.76687606 20 160 C19.278125 160.2475 18.55625 160.495 17.8125 160.75 C16 161 16 161 12 159 C27.345 154.545 27.345 154.545 43 150 C44.98 127.56 46.96 105.12 49 82 C32.83 82 16.66 82 0 82 C2.53453274 80.31031151 4.71960587 79.18385122 7.5 78.01171875 C8.82245728 77.45061401 8.82245728 77.45061401 10.17163086 76.87817383 C11.10499268 76.48525146 12.03835449 76.0923291 13 75.6875 C21.5056902 72.08428997 21.5056902 72.08428997 29.9375 68.3125 C34.1081513 66.39788319 38.29431308 64.52369507 42.5 62.6875 C43.6653125 62.17574219 44.830625 61.66398437 46.03125 61.13671875 C49 60 49 60 52 60 C51.98839844 59.41734375 51.97679687 58.8346875 51.96484375 58.234375 C51.88913356 51.35556369 52.42204611 44.93544673 53 38 C35.51 38 18.02 38 0 38 C0 25.46 0 12.92 0 0 Z " fill="#5DA9CA" transform="translate(92,38)"/>
<path d="M0 0 C0.89460938 -0.00128906 1.78921875 -0.00257813 2.7109375 -0.00390625 C3.65195313 -0.00003906 4.59296875 0.00382813 5.5625 0.0078125 C6.97402344 0.00201172 6.97402344 0.00201172 8.4140625 -0.00390625 C9.75597656 -0.00197266 9.75597656 -0.00197266 11.125 0 C11.95128906 0.00112793 12.77757813 0.00225586 13.62890625 0.00341797 C15.5625 0.1328125 15.5625 0.1328125 16.5625 1.1328125 C16.64963831 2.84053608 16.66950007 4.55179899 16.66015625 6.26171875 C16.65693359 7.29619141 16.65371094 8.33066406 16.65039062 9.39648438 C16.64201172 10.48509766 16.63363281 11.57371094 16.625 12.6953125 C16.62048828 13.78779297 16.61597656 14.88027344 16.61132812 16.00585938 C16.5994984 18.71486682 16.58156231 21.4238463 16.5625 24.1328125 C9.3025 24.1328125 2.0425 24.1328125 -5.4375 24.1328125 C-5.46432792 20.32026627 -5.48425477 16.50790638 -5.5 12.6953125 C-5.50837891 11.60669922 -5.51675781 10.51808594 -5.52539062 9.39648438 C-5.52861328 8.36201172 -5.53183594 7.32753906 -5.53515625 6.26171875 C-5.54039307 5.30338135 -5.54562988 4.34504395 -5.55102539 3.35766602 C-5.3478483 -0.62416806 -3.51352283 0.00479615 0 0 Z " fill="#060606" transform="translate(107.4375,251.8671875)"/>
<path d="M0 0 C0.89460938 -0.00128906 1.78921875 -0.00257813 2.7109375 -0.00390625 C3.65195313 -0.00003906 4.59296875 0.00382813 5.5625 0.0078125 C6.97402344 0.00201172 6.97402344 0.00201172 8.4140625 -0.00390625 C9.75597656 -0.00197266 9.75597656 -0.00197266 11.125 0 C11.95128906 0.00112793 12.77757813 0.00225586 13.62890625 0.00341797 C15.5625 0.1328125 15.5625 0.1328125 16.5625 1.1328125 C16.63517906 2.94397457 16.64621256 4.7578169 16.625 6.5703125 C16.61597656 7.55902344 16.60695313 8.54773438 16.59765625 9.56640625 C16.58605469 10.41332031 16.57445313 11.26023437 16.5625 12.1328125 C16.5625 12.7928125 16.5625 13.4528125 16.5625 14.1328125 C16.5625 17.4328125 16.5625 20.7328125 16.5625 24.1328125 C9.3025 24.1328125 2.0425 24.1328125 -5.4375 24.1328125 C-5.46432792 20.32026627 -5.48425477 16.50790638 -5.5 12.6953125 C-5.50837891 11.60669922 -5.51675781 10.51808594 -5.52539062 9.39648438 C-5.52861328 8.36201172 -5.53183594 7.32753906 -5.53515625 6.26171875 C-5.54039307 5.30338135 -5.54562988 4.34504395 -5.55102539 3.35766602 C-5.3478483 -0.62416806 -3.51352283 0.00479615 0 0 Z " fill="#090909" transform="translate(61.4375,251.8671875)"/>
<path d="M0 0 C1.27423828 -0.00193359 1.27423828 -0.00193359 2.57421875 -0.00390625 C3.91419922 0.00189453 3.91419922 0.00189453 5.28125 0.0078125 C6.17457031 0.00394531 7.06789063 0.00007812 7.98828125 -0.00390625 C8.83777344 -0.00261719 9.68726562 -0.00132812 10.5625 0 C11.34689453 0.00112793 12.13128906 0.00225586 12.93945312 0.00341797 C14.78125 0.1328125 14.78125 0.1328125 15.78125 1.1328125 C15.86838831 2.84053608 15.88825007 4.55179899 15.87890625 6.26171875 C15.87568359 7.29619141 15.87246094 8.33066406 15.86914062 9.39648438 C15.86076172 10.48509766 15.85238281 11.57371094 15.84375 12.6953125 C15.83923828 13.78779297 15.83472656 14.88027344 15.83007812 16.00585938 C15.8182484 18.71486682 15.80031231 21.4238463 15.78125 24.1328125 C8.85125 24.1328125 1.92125 24.1328125 -5.21875 24.1328125 C-5.24557792 20.32026627 -5.26550477 16.50790638 -5.28125 12.6953125 C-5.28962891 11.60669922 -5.29800781 10.51808594 -5.30664062 9.39648438 C-5.30986328 8.36201172 -5.31308594 7.32753906 -5.31640625 6.26171875 C-5.32164307 5.30338135 -5.32687988 4.34504395 -5.33227539 3.35766602 C-5.13340279 -0.53980934 -3.45380613 0.00496644 0 0 Z " fill="#040404" transform="translate(84.21875,251.8671875)"/>
<path d="M0 0 C18.81 0 37.62 0 57 0 C55 2 55 2 52.1796875 2.1953125 C51.08914062 2.17210938 49.99859375 2.14890625 48.875 2.125 C47.77929688 2.10695313 46.68359375 2.08890625 45.5546875 2.0703125 C44.29011719 2.03550781 44.29011719 2.03550781 43 2 C42.67 3.32 42.34 4.64 42 6 C40.68 5.67 39.36 5.34 38 5 C37.67 5.66 37.34 6.32 37 7 C38.65 7 40.3 7 42 7 C42 7.33 42 7.66 42 8 C35.26188501 9.41030314 28.80977041 8.66561666 22 8 C22.99 7.67 23.98 7.34 25 7 C25 6.34 25 5.68 25 5 C22.69 4.67 20.38 4.34 18 4 C17.67 5.32 17.34 6.64 17 8 C16.67 6.35 16.34 4.7 16 3 C14.88625 3.2784375 14.88625 3.2784375 13.75 3.5625 C11.05009037 3.99203108 9.55368923 3.85122974 7 3 C7 3.99 7 4.98 7 6 C6.01 6 5.02 6 4 6 C4 7.32 4 8.64 4 10 C4.66 10 5.32 10 6 10 C6 9.34 6 8.68 6 8 C6.66 8.33 7.32 8.66 8 9 C7.67 9.66 7.34 10.32 7 11 C7.66 11.33 8.32 11.66 9 12 C8.34 12.53625 7.68 13.0725 7 13.625 C4.72980455 15.86982061 4.72980455 15.86982061 4.6875 19 C4.91812406 21.89676512 4.91812406 21.89676512 5.5625 24.25 C6 26 6 26 5 28 C4.90535589 29.3398391 4.86927851 30.68416768 4.8671875 32.02734375 C4.86589844 32.81947266 4.86460938 33.61160156 4.86328125 34.42773438 C4.86714844 35.25595703 4.87101562 36.08417969 4.875 36.9375 C4.87113281 37.76185547 4.86726563 38.58621094 4.86328125 39.43554688 C4.86457031 40.22896484 4.86585937 41.02238281 4.8671875 41.83984375 C4.86831543 42.56550537 4.86944336 43.29116699 4.87060547 44.03881836 C4.93110986 46.21513864 4.93110986 46.21513864 6 49 C6.08021999 50.40824893 6.10765977 51.81997231 6.09765625 53.23046875 C6.09443359 54.03291016 6.09121094 54.83535156 6.08789062 55.66210938 C6.07532227 56.91217773 6.07532227 56.91217773 6.0625 58.1875 C6.05798828 59.03248047 6.05347656 59.87746094 6.04882812 60.74804688 C6.03705403 62.83206155 6.0191189 64.91603977 6 67 C4.29490944 63.99370447 3.67813808 61.5974044 3.40576172 58.16235352 C3.32582977 57.20357803 3.24589783 56.24480255 3.1635437 55.25697327 C3.08637115 54.22471115 3.00919861 53.19244904 2.9296875 52.12890625 C2.80075607 50.5189402 2.80075607 50.5189402 2.66921997 48.87644958 C2.48886905 46.60129542 2.31261369 44.32581345 2.14013672 42.05004883 C1.87831105 38.60605279 1.60236282 35.16341535 1.32421875 31.72070312 C1.15019134 29.50267072 0.97698897 27.2845734 0.8046875 25.06640625 C0.72346649 24.05236221 0.64224548 23.03831818 0.55856323 21.99354553 C0.00704922 14.59925215 0 7.46752658 0 0 Z " fill="#F4E4DF" transform="translate(35,75)"/>
<path d="M0 0 C17.16 0 34.32 0 52 0 C52 7.54155613 51.91871033 14.5846952 51 22 C43.87327893 24.99932768 36.71834961 27.91197097 29.52832031 30.75488281 C24.62795367 32.70945223 19.8381953 34.8526964 15.07421875 37.1171875 C13 38 13 38 11 38 C11 37.34 11 36.68 11 36 C12.95927063 34.2856382 14.95880212 32.61594832 17 31 C17.66 31.33 18.32 31.66 19 32 C19 31.01 19 30.02 19 29 C20.65 29.33 22.3 29.66 24 30 C24 29.34 24 28.68 24 28 C24.71027344 27.81824219 25.42054687 27.63648437 26.15234375 27.44921875 C27.07144531 27.19785156 27.99054688 26.94648437 28.9375 26.6875 C30.31228516 26.32205078 30.31228516 26.32205078 31.71484375 25.94921875 C32.46894531 25.63597656 33.22304687 25.32273437 34 25 C34.495 23.515 34.495 23.515 35 22 C30.38 22 25.76 22 21 22 C21 21.67 21 21.34 21 21 C29.58 20.67 38.16 20.34 47 20 C48.62734519 13.49061926 49.31461011 7.85389886 50 1 C33.5 1 17 1 0 1 C0 0.67 0 0.34 0 0 Z " fill="#DBF6F8" transform="translate(93,76)"/>
<path d="M0 0 C3.96 0 7.92 0 12 0 C12 6.27 12 12.54 12 19 C8.04 19 4.08 19 0 19 C0.66 18.67 1.32 18.34 2 18 C0.68 18 -0.64 18 -2 18 C-2.66 17.67 -3.32 17.34 -4 17 C-3.34 16.34 -2.68 15.68 -2 15 C-1.01 15 -0.02 15 1 15 C0.319375 14.443125 -0.36125 13.88625 -1.0625 13.3125 C-1.701875 12.549375 -2.34125 11.78625 -3 11 C-2.75 8.25 -2.75 8.25 -2 6 C-3.32 5.67 -4.64 5.34 -6 5 C-5.67 4.01 -5.34 3.02 -5 2 C-3.68 2 -2.36 2 -1 2 C-0.67 1.34 -0.34 0.68 0 0 Z " fill="#EDEBEC" transform="translate(78,77)"/>
<path d="M0 0 C0.33 0 0.66 0 1 0 C1.60410187 15.90801582 0.54816913 31.541205 -0.875 47.375 C-0.96213257 48.37631958 -1.04926514 49.37763916 -1.13903809 50.40930176 C-1.39170941 53.2818067 -1.65800736 56.15267449 -1.9296875 59.0234375 C-2.00688019 59.89952667 -2.08407288 60.77561584 -2.16360474 61.67825317 C-2.76894331 67.76894331 -2.76894331 67.76894331 -5 70 C-12.82485266 73.15739669 -20.8650485 75.76687606 -29 78 C-29.721875 78.2475 -30.44375 78.495 -31.1875 78.75 C-33 79 -33 79 -37 77 C-21.655 72.545 -21.655 72.545 -6 68 C-4.02 45.56 -2.04 23.12 0 0 Z " fill="#63B6D6" transform="translate(141,120)"/>
<path d="M0 0 C0.33 0 0.66 0 1 0 C0.41861271 15.55984403 -0.73304425 31.04342673 -2.10180664 46.55273438 C-2.44121616 50.41731282 -2.76869621 54.28279205 -3.09570312 58.1484375 C-3.31178329 60.62766674 -3.52855439 63.10683587 -3.74609375 65.5859375 C-3.84200302 66.73073578 -3.93791229 67.87553406 -4.03672791 69.05502319 C-5.01632504 79.92070299 -5.01632504 79.92070299 -7 85 C-9.8984375 86.59375 -9.8984375 86.59375 -13.375 87.5 C-14.51710937 87.8196875 -15.65921875 88.139375 -16.8359375 88.46875 C-19.74586043 88.95732965 -21.28379249 89.01690527 -24 88 C-23.01 88 -22.02 88 -21 88 C-21 87.34 -21 86.68 -21 86 C-19.2097939 85.32942113 -17.41778511 84.6636531 -15.625 84 C-14.62726563 83.62875 -13.62953125 83.2575 -12.6015625 82.875 C-10 82 -10 82 -8 82 C-8 79.03 -8 76.06 -8 73 C-7.34 73 -6.68 73 -6 73 C-6.01160156 71.99582031 -6.02320313 70.99164063 -6.03515625 69.95703125 C-6.21334142 47.64002425 -6.21334142 47.64002425 -4 41 C-3.86312868 39.25153945 -3.77553355 37.49898384 -3.71875 35.74609375 C-3.68136719 34.72708984 -3.64398438 33.70808594 -3.60546875 32.65820312 C-3.53502847 30.50716564 -3.46471643 28.35612395 -3.39453125 26.20507812 C-3.35714844 25.18736328 -3.31976563 24.16964844 -3.28125 23.12109375 C-3.23581055 21.72008423 -3.23581055 21.72008423 -3.18945312 20.29077148 C-3 18 -3 18 -2 16 C-1.79439193 13.66977522 -1.63400048 11.33543702 -1.5 9 C-1.11111111 2.22222222 -1.11111111 2.22222222 0 0 Z " fill="#276994" transform="translate(169,135)"/>
<path d="M0 0 C7.59 0 15.18 0 23 0 C24.18681726 3.56045177 24.09689832 6.43808337 24.0625 10.1875 C24.05347656 11.45980469 24.04445313 12.73210937 24.03515625 14.04296875 C24.02355469 15.01878906 24.01195313 15.99460938 24 17 C23.67 17 23.34 17 23 17 C22.67 12.38 22.34 7.76 22 3 C17.73461817 5.13269092 17.80447562 5.16548931 16 9 C14.70529025 10.37086915 13.37849103 11.71340837 12 13 C10.85052105 9.44706507 10.9131063 8.20023331 12.4375 4.6875 C12.953125 3.800625 13.46875 2.91375 14 2 C10.37 2 6.74 2 3 2 C2.979375 3.60875 2.95875 5.2175 2.9375 6.875 C2.92589844 7.77992188 2.91429687 8.68484375 2.90234375 9.6171875 C2.83750743 12.0168585 2.83750743 12.0168585 4 14 C4.08372659 15.52148326 4.10730027 17.04655778 4.09765625 18.5703125 C4.09282227 19.91416016 4.09282227 19.91416016 4.08789062 21.28515625 C4.07951172 22.22230469 4.07113281 23.15945312 4.0625 24.125 C4.05798828 25.06988281 4.05347656 26.01476562 4.04882812 26.98828125 C4.03702357 29.32558387 4.02055759 31.66276061 4 34 C4.99 34 5.98 34 7 34 C7 34.66 7 35.32 7 36 C5.68 35.67 4.36 35.34 3 35 C2.49382065 30.47983634 1.99615563 25.95877401 1.5 21.4375 C1.35691406 20.16068359 1.21382812 18.88386719 1.06640625 17.56835938 C0.93105469 16.32763672 0.79570313 15.08691406 0.65625 13.80859375 C0.53056641 12.67220459 0.40488281 11.53581543 0.27539062 10.36499023 C-0.00652339 6.92029088 0 3.45621602 0 0 Z " fill="#F4DFD6" transform="translate(41,153)"/>
<path d="M0 0 C8.25 0 16.5 0 25 0 C25 11.25 25 11.25 24.5625 15.3515625 C24.47226563 16.22167969 24.38203125 17.09179688 24.2890625 17.98828125 C24.14597656 19.29345703 24.14597656 19.29345703 24 20.625 C23.90460938 21.53378906 23.80921875 22.44257813 23.7109375 23.37890625 C23.47856232 25.58647043 23.24153511 27.79342261 23 30 C18.33592776 31.18529109 13.76502076 32.28524689 9 33 C9.33 32.01 9.66 31.02 10 30 C13.87862084 28.60955102 16.86462003 28 21 28 C21.66 19.42 22.32 10.84 23 2 C16.07 1.67 9.14 1.34 2 1 C2.33 12.22 2.66 23.44 3 35 C1.68 34.67 0.36 34.34 -1 34 C-0.67 22.78 -0.34 11.56 0 0 Z " fill="#659CBA" transform="translate(92,142)"/>
<path d="M0 0 C0.33 0 0.66 0 1 0 C1.17051158 10.82658308 0.71175735 21.43842971 -0.3125 32.21875 C-0.4476513 33.69798133 -0.58215968 35.17727152 -0.71606445 36.65661621 C-1.06481088 40.49078001 -1.42209547 44.32409814 -1.78137207 48.1572876 C-2.14863038 52.0926521 -2.50752134 56.02877942 -2.8671875 59.96484375 C-3.57009294 67.64398483 -4.28205047 75.32224922 -5 83 C-5.33 83 -5.66 83 -6 83 C-6.25993978 70.85984954 -5.57410137 58.77686365 -4.88305664 46.66088867 C-4.68854366 43.20603696 -4.50911256 39.75060571 -4.33007812 36.29492188 C-3.65587765 23.99945128 -2.57111097 12.05214839 0 0 Z " fill="#26668F" transform="translate(176,52)"/>
<path d="M0 0 C0.33 0 0.66 0 1 0 C-0.17699714 17.68144905 -1.46184513 35.34583987 -3 53 C-7.88704843 54.85665159 -12.77017034 56.65359528 -17.75 58.25 C-18.83796875 58.60578125 -19.9259375 58.9615625 -21.046875 59.328125 C-23.91620396 59.98093529 -25.29368514 60.02472116 -28 59 C-25.45796189 57.57645866 -23.21445081 56.78329677 -20.375 56 C-16.96285798 55.28091922 -16.96285798 55.28091922 -15 53 C-12.6171875 52.8046875 -12.6171875 52.8046875 -9.875 52.875 C-8.96492188 52.89304688 -8.05484375 52.91109375 -7.1171875 52.9296875 C-6.41851562 52.95289063 -5.71984375 52.97609375 -5 53 C-5.01160156 52.34257812 -5.02320313 51.68515625 -5.03515625 51.0078125 C-5.09614854 44.57748269 -4.93803429 38.17152286 -4.625 31.75 C-4.5787146 30.63455811 -4.5787146 30.63455811 -4.53149414 29.49658203 C-4.29886422 25.1390028 -3.6375111 21.18509263 -2.49462891 16.97753906 C-1.6701508 13.68125444 -1.29643449 10.37147596 -0.875 7 C-0.78863281 6.32066406 -0.70226562 5.64132813 -0.61328125 4.94140625 C-0.40455775 3.29480976 -0.20164449 1.64747838 0 0 Z " fill="#DBF9FD" transform="translate(139,135)"/>
<path d="M0 0 C0.33 0 0.66 0 1 0 C1 4.29 1 8.58 1 13 C2.175625 12.401875 3.35125 11.80375 4.5625 11.1875 C10.09759299 8.68920444 15.8018196 7.73100068 21.7421875 6.7109375 C25.12469853 6.18015112 25.12469853 6.18015112 28 4 C30.8230153 3.39596701 33.64888449 2.98715131 36.50390625 2.5625 C39.15832774 2.19791125 39.15832774 2.19791125 41 0 C43.6015625 -0.1953125 43.6015625 -0.1953125 46.625 -0.125 C48.12933594 -0.09792969 48.12933594 -0.09792969 49.6640625 -0.0703125 C50.43492187 -0.04710937 51.20578125 -0.02390625 52 0 C49.29207603 1.80528265 47.55588527 2.55792868 44.50024414 3.4362793 C43.59242691 3.6996257 42.68460968 3.96297211 41.74928284 4.23429871 C40.77112106 4.51147232 39.79295929 4.78864594 38.78515625 5.07421875 C37.77786972 5.36230911 36.77058319 5.65039948 35.73277283 5.94721985 C33.60267159 6.55427525 31.47175227 7.15846632 29.34008789 7.76000977 C26.07567193 8.68377261 22.81617469 9.62363027 19.55664062 10.56445312 C17.48726037 11.15203292 15.41760755 11.73865382 13.34765625 12.32421875 C12.37151871 12.60746506 11.39538116 12.89071136 10.3896637 13.18254089 C9.47869431 13.43643082 8.56772491 13.69032074 7.62915039 13.9519043 C6.82989639 14.1790361 6.0306424 14.40616791 5.20716858 14.6401825 C3 15 3 15 -1 14 C-0.67 9.38 -0.34 4.76 0 0 Z " fill="#1F699A" transform="translate(93,224)"/>
<path d="M0 0 C4.29 0 8.58 0 13 0 C10.69875356 1.53416429 8.75402849 2.63465377 6.26171875 3.734375 C5.53017578 4.05857422 4.79863281 4.38277344 4.04492188 4.71679688 C3.26697266 5.05775391 2.48902344 5.39871094 1.6875 5.75 C0.89021484 6.10126953 0.09292969 6.45253906 -0.72851562 6.81445312 C-3.15088014 7.87967487 -5.57530327 8.94009964 -8 10 C-8.71978027 10.31646484 -9.43956055 10.63292969 -10.18115234 10.95898438 C-12.11889961 11.81035582 -14.0588724 12.65636902 -16 13.5 C-17.670625 14.22703125 -17.670625 14.22703125 -19.375 14.96875 C-22 16 -22 16 -24 16 C-24 15.34 -24 14.68 -24 14 C-22.04072937 12.2856382 -20.04119788 10.61594832 -18 9 C-17.34 9.33 -16.68 9.66 -16 10 C-16 9.01 -16 8.02 -16 7 C-14.35 7.33 -12.7 7.66 -11 8 C-11 7.34 -11 6.68 -11 6 C-10.28972656 5.81824219 -9.57945313 5.63648437 -8.84765625 5.44921875 C-7.92855469 5.19785156 -7.00945312 4.94648437 -6.0625 4.6875 C-5.14597656 4.44386719 -4.22945312 4.20023437 -3.28515625 3.94921875 C-2.53105469 3.63597656 -1.77695313 3.32273437 -1 3 C-0.67 2.01 -0.34 1.02 0 0 Z " fill="#D8ECF1" transform="translate(128,98)"/>
<path d="M0 0 C2.37969475 3.56954212 2.3647872 5.49950932 2.59765625 9.75 C2.63684677 10.40452148 2.67603729 11.05904297 2.71641541 11.73339844 C2.84030057 13.82187729 2.95212272 15.91076721 3.0625 18 C3.17815908 20.08907708 3.29642717 22.1779359 3.41929626 24.26660156 C3.53000351 26.16179057 3.63251182 28.0574532 3.73461914 29.953125 C3.88453987 33.04148127 3.88453987 33.04148127 5 36 C5.08021999 37.40824893 5.10765977 38.81997231 5.09765625 40.23046875 C5.09443359 41.03291016 5.09121094 41.83535156 5.08789062 42.66210938 C5.07532227 43.91217773 5.07532227 43.91217773 5.0625 45.1875 C5.05798828 46.03248047 5.05347656 46.87746094 5.04882812 47.74804688 C5.03705403 49.83206155 5.0191189 51.91603977 5 54 C2.56065324 50.18057928 2.46304932 46.11609614 2.1484375 41.71875 C2.08467926 40.90942017 2.02092102 40.10009033 1.95523071 39.26623535 C1.82196274 37.55181881 1.69277727 35.83708071 1.56738281 34.12207031 C1.37765978 31.53625126 1.17433204 28.95178864 0.96875 26.3671875 C0.28752474 17.56542578 -0.22021463 8.83527769 0 0 Z " fill="#FBCFC0" transform="translate(36,88)"/>
<path d="M0 0 C0.309375 0.639375 0.61875 1.27875 0.9375 1.9375 C1.8345163 3.93610821 1.8345163 3.93610821 3 5 C3.21952318 7.56891665 3.37948961 10.11729409 3.5 12.69140625 C3.54060547 13.47007553 3.58121094 14.24874481 3.62304688 15.05101013 C3.75314352 17.55463572 3.87704606 20.0585142 4 22.5625 C4.12354944 25.04145201 4.24852206 27.52030409 4.37695312 29.99900818 C4.45676546 31.54268993 4.53375965 33.08652097 4.60742188 34.63050842 C4.79085995 38.21014061 5.06413209 41.74318236 5.52514648 45.29858398 C6.009956 49.07760559 6.09910827 52.69273952 6.0625 56.5 C6.05347656 57.7271875 6.04445313 58.954375 6.03515625 60.21875 C6.01775391 61.59546875 6.01775391 61.59546875 6 63 C5.67 63 5.34 63 5 63 C4.28279167 55.31410961 3.5713196 47.62770346 2.86376953 39.94091797 C2.6225674 37.32784091 2.38006864 34.71488318 2.13623047 32.10205078 C1.78529623 28.3391763 1.43907862 24.57589256 1.09375 20.8125 C0.9843811 19.65073242 0.87501221 18.48896484 0.7623291 17.29199219 C0.23543436 11.49933051 -0.1242846 5.81651915 0 0 Z " fill="#C05F43" transform="translate(6,89)"/>
<path d="M0 0 C0 0.66 0 1.32 0 2 C-2 3 -2 3 -9 3 C-9.66 15.21 -10.32 27.42 -11 40 C-11.33 40 -11.66 40 -12 40 C-12 27.46 -12 14.92 -12 2 C-3 0 -3 0 0 0 Z " fill="#6C94B0" transform="translate(104,198)"/>
<path d="M0 0 C0.1346906 6.94966093 -0.24284996 13.71856383 -1 20.625 C-1.09539062 21.53378906 -1.19078125 22.44257813 -1.2890625 23.37890625 C-1.52143768 25.58647043 -1.75846489 27.79342261 -2 30 C-6.66407224 31.18529109 -11.23497924 32.28524689 -16 33 C-15.67 32.01 -15.34 31.02 -15 30 C-11.12137916 28.60955102 -8.13537997 28 -4 28 C-3.34 19.42 -2.68 10.84 -2 2 C-2.99 1.67 -3.98 1.34 -5 1 C-1.125 0 -1.125 0 0 0 Z " fill="#62B2D2" transform="translate(117,142)"/>
<path d="M0 0 C2.07080352 3.10620529 2.31559613 4.22972838 2.59765625 7.81640625 C2.67693359 8.74517578 2.75621094 9.67394531 2.83789062 10.63085938 C2.91201172 11.59830078 2.98613281 12.56574219 3.0625 13.5625 C3.21652052 15.48075558 3.37390744 17.39874476 3.53515625 19.31640625 C3.600979 20.16662354 3.66680176 21.01684082 3.73461914 21.89282227 C3.88826729 24.05315626 3.88826729 24.05315626 5 26 C5.23692005 29.04924878 5.3823756 32.09724003 5.5234375 35.15234375 C6.03577707 38.21378263 6.58353503 39.14565389 9 41 C7.02 40.34 5.04 39.68 3 39 C2.56923105 34.41047768 2.14210255 29.82063608 1.71826172 25.23046875 C1.57374079 23.67080668 1.42824649 22.11123446 1.28173828 20.55175781 C1.07064489 18.30296703 0.86311888 16.05387036 0.65625 13.8046875 C0.59062866 13.1138205 0.52500732 12.42295349 0.45739746 11.71115112 C0.10097298 7.79317119 -0.06422173 3.93358092 0 0 Z " fill="#BF5537" transform="translate(14,179)"/>
<path d="M0 0 C1.32 0.33 2.64 0.66 4 1 C3.67 1.33 3.34 1.66 3 2 C2.90145345 3.64340867 2.87027589 5.2911461 2.875 6.9375 C2.87242188 7.83339844 2.86984375 8.72929687 2.8671875 9.65234375 C2.84578587 12.02155555 2.84578587 12.02155555 4 14 C4.08372659 15.52148326 4.10730027 17.04655778 4.09765625 18.5703125 C4.09282227 19.91416016 4.09282227 19.91416016 4.08789062 21.28515625 C4.07951172 22.22230469 4.07113281 23.15945312 4.0625 24.125 C4.05798828 25.06988281 4.05347656 26.01476562 4.04882812 26.98828125 C4.03702357 29.32558387 4.02055759 31.66276061 4 34 C4.99 34 5.98 34 7 34 C7 34.66 7 35.32 7 36 C5.68 35.67 4.36 35.34 3 35 C2.49382065 30.47983634 1.99615563 25.95877401 1.5 21.4375 C1.35691406 20.16068359 1.21382812 18.88386719 1.06640625 17.56835938 C0.93105469 16.32763672 0.79570313 15.08691406 0.65625 13.80859375 C0.53056641 12.67220459 0.40488281 11.53581543 0.27539062 10.36499023 C-0.0086196 6.8946773 -0.04642989 3.48030728 0 0 Z " fill="#FCD3C6" transform="translate(41,153)"/>
<path d="M0 0 C-0.33 0.66 -0.66 1.32 -1 2 C11.87 2 24.74 2 38 2 C38 2.33 38 2.66 38 3 C21.5 3 5 3 -12 3 C-4.82142857 -1.78571429 -4.82142857 -1.78571429 0 0 Z " fill="#4DA2C6" transform="translate(104,117)"/>
<path d="M0 0 C0.33 0 0.66 0 1 0 C1.08706892 3.27066566 1.14041241 6.54103365 1.1875 9.8125 C1.21263672 10.74126953 1.23777344 11.67003906 1.26367188 12.62695312 C1.27333984 13.51962891 1.28300781 14.41230469 1.29296875 15.33203125 C1.3086792 16.15421143 1.32438965 16.9763916 1.34057617 17.82348633 C0.91656115 20.53323107 0.15876456 21.3565351 -2 23 C-5.19714952 24.06571651 -7.65915058 24 -11 24 C-11.33 24.33 -11.66 24.66 -12 25 C-14.33297433 25.04092937 -16.66705225 25.04241723 -19 25 C-13.21205151 21.86486124 -7.67742681 19.49919299 -1 20 C-1.020625 18.741875 -1.04125 17.48375 -1.0625 16.1875 C-1.07115072 10.75485053 -0.56512387 5.39895124 0 0 Z " fill="#D2F3FA" transform="translate(116,152)"/>
<path d="M0 0 C1.65 0 3.3 0 5 0 C7.29612756 14.59681093 7.29612756 14.59681093 7 22 C6.34 22 5.68 22 5 22 C5 17.38 5 12.76 5 8 C4.34 8 3.68 8 3 8 C3 6.68 3 5.36 3 4 C-0.465 5.485 -0.465 5.485 -4 7 C-4 5.68 -4 4.36 -4 3 C-3.01 2.67 -2.02 2.34 -1 2 C-0.67 1.34 -0.34 0.68 0 0 Z " fill="#F5D7CC" transform="translate(54,98)"/>
<path d="M0 0 C1.32 0 2.64 0 4 0 C5.32229189 2.64458379 5.09677194 4.67761301 5.0625 7.625 C5.05347656 8.62789062 5.04445312 9.63078125 5.03515625 10.6640625 C5.02355469 11.43492188 5.01195312 12.20578125 5 13 C6.65 13 8.3 13 10 13 C10 13.33 10 13.66 10 14 C7.03 14 4.06 14 1 14 C0.67 9.38 0.34 4.76 0 0 Z " fill="#000000" transform="translate(124,2)"/>
<path d="M0 0 C0.33 0 0.66 0 1 0 C1.33706931 9.83743016 1.02149686 18.50386702 -2 28 C-2.33 28 -2.66 28 -3 28 C-3.56081859 18.38299968 -1.84809149 9.38346453 0 0 Z " fill="#1A6A9D" transform="translate(176,52)"/>
<path d="M0 0 C2.43229371 2.43229371 2.28623175 3.17104805 2.4140625 6.515625 C2.45281494 7.43134277 2.49156738 8.34706055 2.53149414 9.29052734 C2.56235107 10.26715332 2.59320801 11.2437793 2.625 12.25 C2.66294678 13.23822754 2.70089355 14.22645508 2.73999023 15.24462891 C3.01250189 22.83169948 3.11659651 30.4082715 3 38 C2.67 38 2.34 38 2 38 C1.54645612 33.07108434 1.10110002 28.14152337 0.66333008 23.21118164 C0.51323915 21.53389519 0.36090904 19.85680755 0.20629883 18.17993164 C-0.01549232 15.77018155 -0.22923229 13.35983225 -0.44140625 10.94921875 C-0.51218887 10.19912033 -0.5829715 9.44902191 -0.65589905 8.67619324 C-0.93597756 5.41376988 -1.04770389 3.14311168 0 0 Z " fill="#C06449" transform="translate(3,49)"/>
<path d="M0 0 C0.33 0 0.66 0 1 0 C1 3.3 1 6.6 1 10 C0.34 10 -0.32 10 -1 10 C-1 10.99 -1 11.98 -1 13 C-2.74635165 13.53293835 -4.49727652 14.05090663 -6.25 14.5625 C-7.22453125 14.85253906 -8.1990625 15.14257812 -9.203125 15.44140625 C-11.96243932 15.99249836 -13.3912824 15.93789609 -16 15 C-15.01 15 -14.02 15 -13 15 C-13 14.34 -13 13.68 -13 13 C-11.2097939 12.32942113 -9.41778511 11.6636531 -7.625 11 C-6.62726563 10.62875 -5.62953125 10.2575 -4.6015625 9.875 C-2 9 -2 9 0 9 C0 6.03 0 3.06 0 0 Z " fill="#176B9F" transform="translate(161,208)"/>
<path d="M0 0 C4.29 0 8.58 0 13 0 C3.80645161 6.12903226 3.80645161 6.12903226 -1.5 5.75 C-2.325 5.5025 -3.15 5.255 -4 5 C-3.01 4.34 -2.02 3.68 -1 3 C-0.67 2.01 -0.34 1.02 0 0 Z " fill="#CFDEE2" transform="translate(128,98)"/>
<path d="M0 0 C-5.2998851 1.80268201 -10.59945836 3.51749837 -16 5 C-16.721875 5.2475 -17.44375 5.495 -18.1875 5.75 C-20.63247589 6.08723805 -21.86961264 5.14679237 -24 4 C-4.04903678 -2.02451839 -4.04903678 -2.02451839 0 0 Z " fill="#45ACCC" transform="translate(128,193)"/>
<path d="M0 0 C7.26 0.33 14.52 0.66 22 1 C21.67 1.66 21.34 2.32 21 3 C14.07 3 7.14 3 0 3 C0 2.01 0 1.02 0 0 Z " fill="#CB5435" transform="translate(42,150)"/>
<path d="M0 0 C0.33 0.99 0.66 1.98 1 3 C3.00016466 4.20882096 3.00016466 4.20882096 5 5 C5 5.66 5 6.32 5 7 C5.66 7.33 6.32 7.66 7 8 C1.76119922 7.44854729 -2.97350697 6.57077907 -8 5 C-3.375 0 -3.375 0 0 0 Z " fill="#CF5333" transform="translate(32,216)"/>
<path d="M0 0 C4.9904796 0.62461487 9.69719556 1.6151352 14.5625 2.9375 C15.82191406 3.27652344 17.08132812 3.61554688 18.37890625 3.96484375 C21.62126849 4.89173263 24.81130005 5.90434501 28 7 C28 7.33 28 7.66 28 8 C22.68370716 7.31878414 17.52716554 6.29405841 12.3125 5.0625 C11.56677734 4.89298828 10.82105469 4.72347656 10.05273438 4.54882812 C6.47688679 3.70989154 3.18165703 2.87205678 0 1 C0 0.67 0 0.34 0 0 Z " fill="#D1522D" transform="translate(60,193)"/>
<path d="M0 0 C0.33 0 0.66 0 1 0 C1.33 10.23 1.66 20.46 2 31 C3.65 31.33 5.3 31.66 7 32 C5.1875 33.0625 5.1875 33.0625 3 34 C2.01 33.67 1.02 33.34 0 33 C0 22.11 0 11.22 0 0 Z " fill="#33A7D6" transform="translate(94,143)"/>
<path d="M0 0 C0.66 0.33 1.32 0.66 2 1 C-0.41829965 4.62744948 -1.94361443 4.79171494 -6 6 C-6.33 6.33 -6.66 6.66 -7 7 C-8.51928038 7.07179964 -10.04167482 7.08392007 -11.5625 7.0625 C-12.38878906 7.05347656 -13.21507813 7.04445313 -14.06640625 7.03515625 C-14.70449219 7.02355469 -15.34257813 7.01195313 -16 7 C-12.90636923 4.36931161 -10.24105702 3.32960264 -6.3125 2.375 C-2.86115332 1.75123079 -2.86115332 1.75123079 0 0 Z " fill="#46A9D3" transform="translate(118,109)"/>
<path d="M0 0 C12.66970387 0.77904328 12.66970387 0.77904328 18 3 C18 3.66 18 4.32 18 5 C11.69632197 4.41632611 6.01339937 2.95928381 0 1 C0 0.67 0 0.34 0 0 Z " fill="#C45A3E" transform="translate(57,229)"/>
<path d="M0 0 C0.33 0 0.66 0 1 0 C1 6.6 1 13.2 1 20 C0.01 19.67 -0.98 19.34 -2 19 C-2.125 13.25 -2.125 13.25 -1 11 C-0.7724985 9.12943209 -0.59037189 7.25314042 -0.4375 5.375 C-0.35371094 4.37210937 -0.26992187 3.36921875 -0.18359375 2.3359375 C-0.12300781 1.56507812 -0.06242187 0.79421875 0 0 Z " fill="#EF5A2D" transform="translate(90,99)"/>
<path d="M0 0 C0.33 0 0.66 0 1 0 C1.02705308 2.41674224 1.04686438 4.8331794 1.0625 7.25 C1.07087891 7.93191406 1.07925781 8.61382812 1.08789062 9.31640625 C1.10428392 12.69342554 1.05628768 15.77291639 0 19 C-0.99 18.67 -1.98 18.34 -3 18 C-2.855625 17.443125 -2.71125 16.88625 -2.5625 16.3125 C-1.24717978 10.90507243 -0.56615785 5.52907344 0 0 Z " fill="#EBFEFE" transform="translate(143,78)"/>
<path d="M0 0 C1.8871875 0.0309375 1.8871875 0.0309375 3.8125 0.0625 C1.13699708 2.73800292 -1.13629894 2.89459389 -4.8125 3.6875 C-6.00101562 3.94789063 -7.18953125 4.20828125 -8.4140625 4.4765625 C-9.32929687 4.66992188 -10.24453125 4.86328125 -11.1875 5.0625 C-11.1875 4.4025 -11.1875 3.7425 -11.1875 3.0625 C-9.8675 3.0625 -8.5475 3.0625 -7.1875 3.0625 C-7.1875 2.4025 -7.1875 1.7425 -7.1875 1.0625 C-4.43671116 0.14557039 -2.82801087 -0.04636083 0 0 Z " fill="#D4F4FB" transform="translate(106.1875,194.9375)"/>
<path d="M0 0 C-1.78953185 0.83790789 -3.58169695 1.67019396 -5.375 2.5 C-6.87160156 3.19609375 -6.87160156 3.19609375 -8.3984375 3.90625 C-11 5 -11 5 -13 5 C-13 4.34 -13 3.68 -13 3 C-9.17472574 -0.67814833 -5.02286969 -1.6742899 0 0 Z " fill="#D1F4FA" transform="translate(117,109)"/>
<path d="M0 0 C0.99 0.495 0.99 0.495 2 1 C1.67 3.97 1.34 6.94 1 10 C0.67 10 0.34 10 0 10 C0 6.7 0 3.4 0 0 Z M-1 10 C-0.67 10.99 -0.34 11.98 0 13 C-1 14 -1 14 -2.84765625 14.09765625 C-4.8984375 14.06510417 -6.94921875 14.03255208 -9 14 C-6.33440687 12.22293791 -3.9719385 11.12451727 -1 10 Z " fill="#32A6D4" transform="translate(138,178)"/>
<path d="M0 0 C-3.1622274 1.73169596 -6.26742722 2.7128976 -9.75 3.625 C-10.73484375 3.88539063 -11.7196875 4.14578125 -12.734375 4.4140625 C-13.85585937 4.70410156 -13.85585937 4.70410156 -15 5 C-15.33 4.01 -15.66 3.02 -16 2 C-10.61972975 0.80911014 -5.54708616 -0.2919519 0 0 Z " fill="#286891" transform="translate(128,229)"/>
<path d="M0 0 C0.33 0.99 0.66 1.98 1 3 C-0.59915881 3.69906942 -2.20455045 4.38389468 -3.8125 5.0625 C-4.70582031 5.44535156 -5.59914063 5.82820312 -6.51953125 6.22265625 C-9 7 -9 7 -12 6 C-11 4 -11 4 -7.6875 2.875 C-4 2 -4 2 0 2 C0 1.34 0 0.68 0 0 Z " fill="#4CAAD0" transform="translate(113,168)"/>
<path d="M0 0 C1.32 0.33 2.64 0.66 4 1 C3.67 1.33 3.34 1.66 3 2 C2.76346477 4.52596259 2.57826308 7.03107207 2.4375 9.5625 C2.39431641 10.27341797 2.35113281 10.98433594 2.30664062 11.71679688 C2.20028223 13.47761912 2.09961154 15.2387832 2 17 C1.67 17 1.34 17 1 17 C0.67 11.39 0.34 5.78 0 0 Z " fill="#F6BCAA" transform="translate(41,153)"/>
<path d="M0 0 C2.97 0 5.94 0 9 0 C5.31265242 2.45823172 2.30300029 3.01242616 -2 4 C-2 3.34 -2 2.68 -2 2 C-1.34 2 -0.68 2 0 2 C0 1.34 0 0.68 0 0 Z " fill="#23668D" transform="translate(136,224)"/>
<path d="M0 0 C0.33 0.99 0.66 1.98 1 3 C1.66 3.33 2.32 3.66 3 4 C-3.0546875 4.1953125 -3.0546875 4.1953125 -5 4 C-5.66 3.34 -6.32 2.68 -7 2 C-4.69 1.34 -2.38 0.68 0 0 Z " fill="#F4CEBE" transform="translate(89,196)"/>
<path d="M0 0 C0 0.66 0 1.32 0 2 C-2.52475462 3.26237731 -4.31200466 3.09856404 -7.125 3.0625 C-8.03507812 3.05347656 -8.94515625 3.04445312 -9.8828125 3.03515625 C-10.58148438 3.02355469 -11.28015625 3.01195312 -12 3 C-12 2.67 -12 2.34 -12 2 C-10.56342755 1.66269158 -9.12569907 1.33030409 -7.6875 1 C-6.88699219 0.814375 -6.08648437 0.62875 -5.26171875 0.4375 C-3 0 -3 0 0 0 Z " fill="#60AFD1" transform="translate(104,198)"/>
<path d="M0 0 C0.66 0 1.32 0 2 0 C2 1.32 2 2.64 2 4 C2.66 4.33 3.32 4.66 4 5 C2.741875 4.87625 1.48375 4.7525 0.1875 4.625 C-0.87404297 4.52058594 -0.87404297 4.52058594 -1.95703125 4.4140625 C-4 4 -4 4 -7 2 C-4.69 2 -2.38 2 0 2 C0 1.34 0 0.68 0 0 Z " fill="#B55032" transform="translate(82,232)"/>
<path d="M0 0 C-2.17288535 2.17288535 -3.01029519 2.64827002 -6 3 C-8.25 2.0625 -8.25 2.0625 -10 1 C-3.71428571 -1.42857143 -3.71428571 -1.42857143 0 0 Z " fill="#5CB6D7" transform="translate(114,196)"/>
<path d="M0 0 C6.625 0.75 6.625 0.75 10 3 C9.01 3 8.02 3 7 3 C6.34 4.32 5.68 5.64 5 7 C4.9175 6.401875 4.835 5.80375 4.75 5.1875 C3.79544128 2.4033704 2.42867729 1.56688858 0 0 Z " fill="#FADBCD" transform="translate(77,174)"/>
<path d="M0 0 C1.45823212 -0.0270043 2.91660675 -0.04639787 4.375 -0.0625 C5.18710938 -0.07410156 5.99921875 -0.08570313 6.8359375 -0.09765625 C9 0 9 0 11 1 C11 1.66 11 2.32 11 3 C7.37 2.34 3.74 1.68 0 1 C0 0.67 0 0.34 0 0 Z " fill="#F7C6B6" transform="translate(71,195)"/>
<path d="M0 0 C0.99 0.495 0.99 0.495 2 1 C2.33 1.99 2.66 2.98 3 4 C3.99 4.33 4.98 4.66 6 5 C6 5.66 6 6.32 6 7 C3.03 6.505 3.03 6.505 0 6 C0 4.02 0 2.04 0 0 Z " fill="#D46647" transform="translate(65,165)"/>
<path d="M0 0 C0.33 0 0.66 0 1 0 C1.33 1.98 1.66 3.96 2 6 C3.65 6.33 5.3 6.66 7 7 C5.1875 8.0625 5.1875 8.0625 3 9 C2.01 8.67 1.02 8.34 0 8 C0 5.36 0 2.72 0 0 Z " fill="#52B1D7" transform="translate(94,168)"/>
</svg>
